#N canvas -8 -8 1366 696 10;
#X obj 8 272 sendOSC;
#X obj 250 67 hsl 128 30 0 255 0 0 empty empty empty -2 -8 0 10 -262144
-1 -1 0 0;
#X obj 59 273 print;
#X msg 36 35 disconnect;
#X obj 248 147 hsl 128 30 0 255 0 0 empty empty empty -2 -8 0 10 -262144
-1 -1 0 0;
#X obj 243 229 hradio 30 1 0 8 empty empty empty 0 -8 0 30 -262144
-1 -1 2;
#X msg 245 184 send /1/fps \$1;
#X msg 243 262 send /1/state/\$1/1 1;
#X obj 202 439 hsl 128 30 0 120 0 0 empty empty empty -2 -8 0 10 -262144
-1 -1 0 0;
#X msg 199 479 send /1/rotary1 \$1;
#X obj 345 440 bng 32 250 50 0 empty empty empty 17 7 0 10 -262144
-1 -1;
#X msg 346 471 send /1/push1;
#X msg 247 104 send /1/light \$1;
#X obj 45 440 hsl 128 15 0 255 0 0 empty empty empty -2 -8 0 10 -262144
-1 -1 11700 0;
#X obj 45 463 hsl 128 15 0 255 0 0 empty empty empty -2 -8 0 10 -262144
-1 -1 12000 0;
#X obj 27 495 pack \$1 \$2;
#X msg 17 525 send /1/xypad \$1 \$2;
#X obj 27 477 bng 15 250 50 0 empty empty empty 17 7 0 10 -262144 -1
-1;
#X text 40 422 XY-PAD;
#X obj 245 311 hradio 30 1 0 10 empty empty empty 0 -8 0 10 -262144
-1 -1 1;
#X msg 245 349 send /1/palette/\$1/1 1;
#X msg 15 12 connect 192.168.1.107 10000;
#X obj 570 70 hsl 128 30 0 255 0 0 empty empty empty -2 -8 0 10 -262144
-1 -1 0 0;
#X obj 568 150 hsl 128 30 0 255 0 0 empty empty empty -2 -8 0 10 -262144
-1 -1 0 0;
#X obj 563 232 hradio 30 1 0 8 empty empty empty 0 -8 0 30 -262144
-1 -1 0;
#X obj 565 314 hradio 30 1 0 10 empty empty empty 0 -8 0 10 -262144
-1 -1 0;
#X msg 567 107 send /2/light \$1;
#X msg 565 187 send /2/fps \$1;
#X msg 563 265 send /2/state/\$1/1 1;
#X msg 566 352 send /2/palette/\$1/1 1;
#X connect 1 0 12 0;
#X connect 3 0 0 0;
#X connect 4 0 6 0;
#X connect 5 0 7 0;
#X connect 6 0 0 0;
#X connect 6 0 2 0;
#X connect 7 0 0 0;
#X connect 7 0 2 0;
#X connect 8 0 9 0;
#X connect 9 0 2 0;
#X connect 9 0 0 0;
#X connect 10 0 11 0;
#X connect 11 0 2 0;
#X connect 11 0 0 0;
#X connect 12 0 2 0;
#X connect 12 0 0 0;
#X connect 13 0 15 0;
#X connect 14 0 15 1;
#X connect 14 0 17 0;
#X connect 15 0 16 0;
#X connect 16 0 2 0;
#X connect 16 0 0 0;
#X connect 17 0 15 0;
#X connect 19 0 20 0;
#X connect 20 0 2 0;
#X connect 20 0 0 0;
#X connect 21 0 0 0;
#X connect 22 0 26 0;
#X connect 23 0 27 0;
#X connect 24 0 28 0;
#X connect 25 0 29 0;
#X connect 26 0 2 0;
#X connect 26 0 0 0;
#X connect 27 0 0 0;
#X connect 27 0 2 0;
#X connect 28 0 2 0;
#X connect 28 0 0 0;
#X connect 29 0 2 0;
#X connect 29 0 0 0;
