#N canvas 261 -1123 557 553 10;
#X obj 8 272 sendOSC;
#X obj 250 17 hsl 128 30 0 255 0 0 empty empty empty -2 -8 0 10 -262144
-1 -1 7300 0;
#X obj 59 273 print;
#X msg 36 35 disconnect;
#X obj 248 97 hsl 128 30 0 255 0 0 empty empty empty -2 -8 0 10 -262144
-1 -1 1000 0;
#X obj 243 179 hradio 30 1 0 8 empty empty empty 0 -8 0 30 -262144
-1 -1 1;
#X msg 245 134 send /1/fps \$1;
#X msg 243 212 send /1/state/\$1/1 1;
#X obj 202 439 hsl 128 30 0 120 0 0 empty empty empty -2 -8 0 10 -262144
-1 -1 7300 1;
#X msg 199 479 send /1/rotary1 \$1;
#X obj 345 440 bng 32 250 50 0 empty empty empty 17 7 0 10 -262144
-1 -1;
#X msg 346 471 send /1/push1;
#X msg 13 16 connect 192.168.1.107 8000;
#X msg 247 54 send /1/light \$1;
#X obj 45 440 hsl 128 15 0 127 0 0 empty empty empty -2 -8 0 10 -262144
-1 -1 9800 1;
#X obj 45 463 hsl 128 15 0 127 0 0 empty empty empty -2 -8 0 10 -262144
-1 -1 12700 1;
#X obj 27 495 pack \$1 \$2;
#X msg 17 525 send /1/xypad \$1 \$2;
#X obj 27 477 bng 15 250 50 0 empty empty empty 17 7 0 10 -262144 -1
-1;
#X text 40 422 XY-PAD;
#X obj 245 261 hradio 30 1 0 10 empty empty empty 0 -8 0 10 -262144
-1 -1 7;
#X msg 236 324 send /1/palette/\$1/1 1;
#X connect 1 0 13 0;
#X connect 3 0 0 0;
#X connect 4 0 6 0;
#X connect 5 0 7 0;
#X connect 6 0 0 0;
#X connect 6 0 2 0;
#X connect 7 0 0 0;
#X connect 7 0 2 0;
#X connect 8 0 9 0;
#X connect 9 0 2 0;
#X connect 9 0 0 0;
#X connect 10 0 11 0;
#X connect 11 0 2 0;
#X connect 11 0 0 0;
#X connect 12 0 0 0;
#X connect 13 0 2 0;
#X connect 13 0 0 0;
#X connect 14 0 16 0;
#X connect 15 0 16 1;
#X connect 15 0 18 0;
#X connect 16 0 17 0;
#X connect 17 0 2 0;
#X connect 17 0 0 0;
#X connect 18 0 16 0;
#X connect 20 0 21 0;
#X connect 21 0 2 0;
#X connect 21 0 0 0;
