#N canvas 1126 -682 520 553 10;
#X obj 8 272 sendOSC;
#X msg 247 54 send /1/brightness \$1;
#X obj 250 17 hsl 128 30 0 255 0 0 empty empty empty -2 -8 0 10 -262144
-1 -1 0 0;
#X obj 59 273 print;
#X msg 36 35 disconnect;
#X obj 255 97 hsl 128 30 0 255 0 0 empty empty empty -2 -8 0 10 -262144
-1 -1 2000 0;
#X obj 262 168 hradio 30 1 0 7 empty empty empty 0 -8 0 30 -262144
-1 -1 4;
#X msg 252 134 send /1/fps \$1;
#X msg 262 201 send /1/state/\$1/1 1;
#X msg 8 16 connect 192.168.1.107 8000;
#X obj 264 254 hsl 128 30 0 120 0 0 empty empty empty -2 -8 0 10 -262144
-1 -1 1600 1;
#X msg 261 290 send /1/rotary1 \$1;
#X connect 1 0 3 0;
#X connect 1 0 0 0;
#X connect 2 0 1 0;
#X connect 4 0 0 0;
#X connect 5 0 7 0;
#X connect 6 0 8 0;
#X connect 7 0 0 0;
#X connect 7 0 3 0;
#X connect 8 0 0 0;
#X connect 8 0 3 0;
#X connect 9 0 0 0;
#X connect 10 0 11 0;
#X connect 11 0 3 0;
#X connect 11 0 0 0;
